<mxfile host="app.diagrams.net" modified="2023-09-28T06:53:22.146Z" agent="Mozilla/5.0 (Windows NT 10.0; Win64; x64) AppleWebKit/537.36 (KHTML, like Gecko) Chrome/117.0.0.0 Safari/537.36" etag="6pElHm1CJWrloiQREP5u" version="21.8.2" type="github">
  <diagram id="FLARmqn-sCxhorqhwDuB" name="Page-1">
    <mxGraphModel dx="1012" dy="545" grid="0" gridSize="10" guides="1" tooltips="1" connect="1" arrows="1" fold="1" page="1" pageScale="1" pageWidth="3300" pageHeight="4681" math="0" shadow="0">
      <root>
        <mxCell id="0" />
        <mxCell id="1" parent="0" />
        <mxCell id="HNuO8RR3fyhFZEDYtFWN-7" value="" style="whiteSpace=wrap;html=1;aspect=fixed;fillColor=#FFFF00;shadow=0;strokeColor=#000000;rounded=0;sketch=0;glass=0;strokeWidth=1;fillStyle=auto;perimeterSpacing=0;fontSize=20;" parent="1" vertex="1">
          <mxGeometry x="14" y="30.999999999999986" width="83.5" height="83.5" as="geometry" />
        </mxCell>
        <mxCell id="HNuO8RR3fyhFZEDYtFWN-8" value="" style="whiteSpace=wrap;html=1;aspect=fixed;fillColor=#FF0000;shadow=0;strokeColor=#000000;rounded=0;sketch=0;glass=0;strokeWidth=1;fillStyle=auto;perimeterSpacing=0;fontSize=20;" parent="1" vertex="1">
          <mxGeometry x="24" y="40.999999999999986" width="83.5" height="83.5" as="geometry" />
        </mxCell>
        <mxCell id="HNuO8RR3fyhFZEDYtFWN-9" value="" style="whiteSpace=wrap;html=1;aspect=fixed;fillColor=#FFFF00;shadow=0;strokeColor=#000000;rounded=0;sketch=0;glass=0;strokeWidth=1;fillStyle=auto;perimeterSpacing=0;fontSize=20;" parent="1" vertex="1">
          <mxGeometry x="33" y="49.999999999999986" width="83.5" height="83.5" as="geometry" />
        </mxCell>
        <mxCell id="HNuO8RR3fyhFZEDYtFWN-10" value="" style="whiteSpace=wrap;html=1;aspect=fixed;fillColor=#FF0000;shadow=0;strokeColor=#000000;rounded=0;sketch=0;glass=0;strokeWidth=1;fillStyle=auto;perimeterSpacing=0;fontSize=20;" parent="1" vertex="1">
          <mxGeometry x="42" y="59.999999999999986" width="83.5" height="83.5" as="geometry" />
        </mxCell>
        <mxCell id="HNuO8RR3fyhFZEDYtFWN-15" value="" style="whiteSpace=wrap;html=1;aspect=fixed;fillColor=#FFFF00;shadow=0;strokeColor=#000000;rounded=0;sketch=0;glass=0;strokeWidth=1;fillStyle=auto;perimeterSpacing=0;fontSize=20;" parent="1" vertex="1">
          <mxGeometry x="50" y="69.99999999999999" width="83.5" height="83.5" as="geometry" />
        </mxCell>
        <mxCell id="Czk9K3e9gK6CF3bR32Vg-6" style="edgeStyle=orthogonalEdgeStyle;rounded=0;orthogonalLoop=1;jettySize=auto;html=1;exitX=1;exitY=0.25;exitDx=0;exitDy=0;entryX=0;entryY=0.5;entryDx=0;entryDy=0;strokeWidth=2;" edge="1" parent="1" source="HNuO8RR3fyhFZEDYtFWN-16" target="Czk9K3e9gK6CF3bR32Vg-3">
          <mxGeometry relative="1" as="geometry" />
        </mxCell>
        <mxCell id="HNuO8RR3fyhFZEDYtFWN-16" value="" style="whiteSpace=wrap;html=1;aspect=fixed;fillColor=#FF0000;shadow=0;strokeColor=#000000;rounded=0;sketch=0;glass=0;strokeWidth=1;fillStyle=auto;perimeterSpacing=0;fontSize=20;flipH=0;flipV=1;rotation=0;container=0;" parent="1" vertex="1">
          <mxGeometry x="59" y="81.00000000000003" width="80" height="80" as="geometry" />
        </mxCell>
        <mxCell id="HNuO8RR3fyhFZEDYtFWN-76" value="" style="rounded=0;whiteSpace=wrap;html=1;shadow=0;glass=0;sketch=0;fillStyle=auto;strokeColor=#000000;strokeWidth=2;fillColor=#FFFF00;gradientColor=none;direction=south;textDirection=ltr;horizontal=0;fontFamily=Times New Roman;fontSize=20;" parent="1" vertex="1">
          <mxGeometry x="787" y="7.730000000000189" width="46" height="208" as="geometry" />
        </mxCell>
        <mxCell id="HNuO8RR3fyhFZEDYtFWN-78" value="" style="ellipse;whiteSpace=wrap;html=1;aspect=fixed;rounded=0;shadow=0;glass=0;sketch=0;fillStyle=auto;strokeColor=#000000;strokeWidth=1;fontFamily=Times New Roman;fontSize=20;fillColor=#FFFFFF;gradientColor=none;" parent="1" vertex="1">
          <mxGeometry x="799.21" y="23.300000000000125" width="21.57" height="21.57" as="geometry" />
        </mxCell>
        <mxCell id="HNuO8RR3fyhFZEDYtFWN-92" value="Input Layers" style="text;html=1;strokeColor=none;fillColor=none;align=center;verticalAlign=middle;whiteSpace=wrap;rounded=0;shadow=0;glass=0;sketch=0;fillStyle=auto;strokeWidth=1;fontFamily=Times New Roman;fontSize=20;" parent="1" vertex="1">
          <mxGeometry x="19.620000000000005" y="171.86" width="110.25" height="30" as="geometry" />
        </mxCell>
        <mxCell id="HNuO8RR3fyhFZEDYtFWN-112" value="" style="ellipse;whiteSpace=wrap;html=1;aspect=fixed;rounded=0;shadow=0;glass=0;sketch=0;fillStyle=auto;strokeColor=#000000;strokeWidth=1;fontFamily=Times New Roman;fontSize=20;fillColor=#FFFFFF;gradientColor=none;" parent="1" vertex="1">
          <mxGeometry x="799.21" y="62.93000000000012" width="21.57" height="21.57" as="geometry" />
        </mxCell>
        <mxCell id="HNuO8RR3fyhFZEDYtFWN-113" value="" style="ellipse;whiteSpace=wrap;html=1;aspect=fixed;rounded=0;shadow=0;glass=0;sketch=0;fillStyle=auto;strokeColor=#000000;strokeWidth=1;fontFamily=Times New Roman;fontSize=20;fillColor=#FFFFFF;gradientColor=none;" parent="1" vertex="1">
          <mxGeometry x="799.21" y="101.50000000000017" width="21.57" height="21.57" as="geometry" />
        </mxCell>
        <mxCell id="HNuO8RR3fyhFZEDYtFWN-114" value="" style="ellipse;whiteSpace=wrap;html=1;aspect=fixed;rounded=0;shadow=0;glass=0;sketch=0;fillStyle=auto;strokeColor=#000000;strokeWidth=1;fontFamily=Times New Roman;fontSize=20;fillColor=#FFFFFF;gradientColor=none;" parent="1" vertex="1">
          <mxGeometry x="799.21" y="137.18000000000006" width="21.57" height="21.57" as="geometry" />
        </mxCell>
        <mxCell id="HNuO8RR3fyhFZEDYtFWN-115" value="" style="ellipse;whiteSpace=wrap;html=1;aspect=fixed;rounded=0;shadow=0;glass=0;sketch=0;fillStyle=auto;strokeColor=#000000;strokeWidth=1;fontFamily=Times New Roman;fontSize=20;fillColor=#FFFFFF;gradientColor=none;" parent="1" vertex="1">
          <mxGeometry x="799.21" y="174.11000000000013" width="21.57" height="21.57" as="geometry" />
        </mxCell>
        <mxCell id="HNuO8RR3fyhFZEDYtFWN-126" value="&lt;font color=&quot;#ffffff&quot;&gt;Softmax&lt;/font&gt;" style="ellipse;whiteSpace=wrap;html=1;aspect=fixed;rounded=0;shadow=0;glass=0;sketch=0;fillStyle=auto;strokeColor=#000000;strokeWidth=1;fontFamily=Times New Roman;fontSize=20;fillColor=#FF0000;gradientColor=none;" parent="1" vertex="1">
          <mxGeometry x="902.98" y="52.8400000000002" width="95.03" height="95.03" as="geometry" />
        </mxCell>
        <mxCell id="HNuO8RR3fyhFZEDYtFWN-127" value="" style="endArrow=classic;html=1;rounded=0;strokeWidth=2;fontFamily=Times New Roman;fontSize=20;entryX=0;entryY=0.5;entryDx=0;entryDy=0;" parent="1" target="HNuO8RR3fyhFZEDYtFWN-126" edge="1">
          <mxGeometry width="50" height="50" relative="1" as="geometry">
            <mxPoint x="833" y="100.77000000000015" as="sourcePoint" />
            <mxPoint x="909" y="100.77000000000015" as="targetPoint" />
          </mxGeometry>
        </mxCell>
        <mxCell id="HNuO8RR3fyhFZEDYtFWN-128" value="" style="endArrow=none;html=1;rounded=0;strokeWidth=2;fontFamily=Times New Roman;fontSize=20;exitX=0;exitY=0.5;exitDx=0;exitDy=0;" parent="1" source="HNuO8RR3fyhFZEDYtFWN-126" edge="1">
          <mxGeometry width="50" height="50" relative="1" as="geometry">
            <mxPoint x="897" y="97.77000000000015" as="sourcePoint" />
            <mxPoint x="833" y="7.770000000000152" as="targetPoint" />
          </mxGeometry>
        </mxCell>
        <mxCell id="HNuO8RR3fyhFZEDYtFWN-133" value="" style="endArrow=none;html=1;rounded=0;strokeWidth=2;fontFamily=Times New Roman;fontSize=20;entryX=0;entryY=0.5;entryDx=0;entryDy=0;" parent="1" target="HNuO8RR3fyhFZEDYtFWN-126" edge="1">
          <mxGeometry width="50" height="50" relative="1" as="geometry">
            <mxPoint x="833" y="215.7700000000002" as="sourcePoint" />
            <mxPoint x="846" y="126.77000000000015" as="targetPoint" />
          </mxGeometry>
        </mxCell>
        <mxCell id="HNuO8RR3fyhFZEDYtFWN-134" value="" style="endArrow=none;html=1;rounded=0;strokeWidth=2;fontFamily=Times New Roman;fontSize=20;entryX=0;entryY=0.5;entryDx=0;entryDy=0;" parent="1" target="HNuO8RR3fyhFZEDYtFWN-126" edge="1">
          <mxGeometry width="50" height="50" relative="1" as="geometry">
            <mxPoint x="833" y="51.77000000000015" as="sourcePoint" />
            <mxPoint x="905" y="101.77000000000015" as="targetPoint" />
          </mxGeometry>
        </mxCell>
        <mxCell id="HNuO8RR3fyhFZEDYtFWN-135" value="" style="endArrow=none;html=1;rounded=0;strokeWidth=2;fontFamily=Times New Roman;fontSize=20;entryX=0;entryY=0.5;entryDx=0;entryDy=0;" parent="1" target="HNuO8RR3fyhFZEDYtFWN-126" edge="1">
          <mxGeometry width="50" height="50" relative="1" as="geometry">
            <mxPoint x="833" y="164.7700000000002" as="sourcePoint" />
            <mxPoint x="905" y="100.77000000000015" as="targetPoint" />
          </mxGeometry>
        </mxCell>
        <mxCell id="HNuO8RR3fyhFZEDYtFWN-155" value="" style="endArrow=none;html=1;rounded=0;strokeWidth=2;fontFamily=Times New Roman;fontSize=20;fontColor=#000000;entryX=0;entryY=0.5;entryDx=0;entryDy=0;" parent="1" target="HNuO8RR3fyhFZEDYtFWN-126" edge="1">
          <mxGeometry width="50" height="50" relative="1" as="geometry">
            <mxPoint x="833" y="130.77000000000015" as="sourcePoint" />
            <mxPoint x="816" y="114.77000000000015" as="targetPoint" />
          </mxGeometry>
        </mxCell>
        <mxCell id="HNuO8RR3fyhFZEDYtFWN-156" value="" style="endArrow=none;html=1;rounded=0;strokeWidth=2;fontFamily=Times New Roman;fontSize=20;fontColor=#000000;entryX=0;entryY=0.5;entryDx=0;entryDy=0;exitX=0.186;exitY=0.414;exitDx=0;exitDy=0;exitPerimeter=0;" parent="1" target="HNuO8RR3fyhFZEDYtFWN-126" edge="1">
          <mxGeometry width="50" height="50" relative="1" as="geometry">
            <mxPoint x="832.8139999999999" y="75.83270000000022" as="sourcePoint" />
            <mxPoint x="849" y="65.77000000000015" as="targetPoint" />
          </mxGeometry>
        </mxCell>
        <mxCell id="L2ZbHlx48BQ5fT_40NmV-63" value="Fully Connected Layer" style="text;html=1;strokeColor=none;fillColor=none;align=center;verticalAlign=middle;whiteSpace=wrap;rounded=0;shadow=0;glass=0;sketch=0;fillStyle=auto;strokeWidth=1;fontFamily=Times New Roman;fontSize=20;horizontal=1;rotation=270;" parent="1" vertex="1">
          <mxGeometry x="673" y="96.73000000000002" width="196.5" height="30" as="geometry" />
        </mxCell>
        <mxCell id="slrRQFkz38ouhWpefdhH-30" value="" style="endArrow=none;dashed=1;html=1;rounded=0;strokeWidth=3;" parent="1" edge="1">
          <mxGeometry width="50" height="50" relative="1" as="geometry">
            <mxPoint x="7" y="238" as="sourcePoint" />
            <mxPoint x="1008" y="241" as="targetPoint" />
          </mxGeometry>
        </mxCell>
        <mxCell id="Czk9K3e9gK6CF3bR32Vg-14" style="edgeStyle=orthogonalEdgeStyle;rounded=0;orthogonalLoop=1;jettySize=auto;html=1;exitX=1;exitY=0.5;exitDx=0;exitDy=0;entryX=0.5;entryY=0;entryDx=0;entryDy=0;strokeWidth=2;" edge="1" parent="1" source="Czk9K3e9gK6CF3bR32Vg-2" target="Czk9K3e9gK6CF3bR32Vg-4">
          <mxGeometry relative="1" as="geometry" />
        </mxCell>
        <mxCell id="Czk9K3e9gK6CF3bR32Vg-2" value="&lt;font color=&quot;#ffffff&quot; style=&quot;font-size: 17px;&quot;&gt;Efficient Blocks&lt;/font&gt;" style="rounded=1;whiteSpace=wrap;html=1;fillColor=#0000FF;" vertex="1" parent="1">
          <mxGeometry x="388" y="71.74999999999999" width="159" height="60" as="geometry" />
        </mxCell>
        <mxCell id="Czk9K3e9gK6CF3bR32Vg-13" style="edgeStyle=orthogonalEdgeStyle;rounded=0;orthogonalLoop=1;jettySize=auto;html=1;exitX=1;exitY=0.5;exitDx=0;exitDy=0;entryX=0;entryY=0.5;entryDx=0;entryDy=0;strokeWidth=2;" edge="1" parent="1" source="Czk9K3e9gK6CF3bR32Vg-3" target="Czk9K3e9gK6CF3bR32Vg-2">
          <mxGeometry relative="1" as="geometry" />
        </mxCell>
        <mxCell id="Czk9K3e9gK6CF3bR32Vg-3" value="&lt;font style=&quot;font-size: 17px;&quot;&gt;Stem Convolutional&lt;br&gt;Layer&lt;/font&gt;" style="rounded=0;whiteSpace=wrap;html=1;rotation=0;horizontal=1;fillColor=#FFFF00;" vertex="1" parent="1">
          <mxGeometry x="176" y="71.5" width="175" height="60.25" as="geometry" />
        </mxCell>
        <mxCell id="Czk9K3e9gK6CF3bR32Vg-9" style="edgeStyle=orthogonalEdgeStyle;rounded=0;orthogonalLoop=1;jettySize=auto;html=1;exitX=0.5;exitY=1;exitDx=0;exitDy=0;entryX=0.5;entryY=0;entryDx=0;entryDy=0;strokeWidth=2;" edge="1" parent="1" source="Czk9K3e9gK6CF3bR32Vg-4" target="Czk9K3e9gK6CF3bR32Vg-5">
          <mxGeometry relative="1" as="geometry" />
        </mxCell>
        <mxCell id="Czk9K3e9gK6CF3bR32Vg-4" value="&lt;font style=&quot;font-size: 17px;&quot;&gt;Expand Convolution&lt;/font&gt;" style="rounded=0;whiteSpace=wrap;html=1;rotation=-90;horizontal=1;fillColor=#FFFF00;" vertex="1" parent="1">
          <mxGeometry x="517" y="76.12" width="184" height="51.25" as="geometry" />
        </mxCell>
        <mxCell id="Czk9K3e9gK6CF3bR32Vg-5" value="&lt;font style=&quot;font-size: 17px;&quot;&gt;Global Average&lt;br&gt;Pooling Layer&lt;/font&gt;" style="rounded=0;whiteSpace=wrap;html=1;rotation=-90;horizontal=1;fillColor=#FFFF00;" vertex="1" parent="1">
          <mxGeometry x="623" y="70" width="151.5" height="64" as="geometry" />
        </mxCell>
        <mxCell id="Czk9K3e9gK6CF3bR32Vg-11" style="edgeStyle=orthogonalEdgeStyle;rounded=0;orthogonalLoop=1;jettySize=auto;html=1;exitX=0.5;exitY=1;exitDx=0;exitDy=0;entryX=0.551;entryY=0.085;entryDx=0;entryDy=0;entryPerimeter=0;strokeWidth=2;" edge="1" parent="1" source="Czk9K3e9gK6CF3bR32Vg-5" target="L2ZbHlx48BQ5fT_40NmV-63">
          <mxGeometry relative="1" as="geometry" />
        </mxCell>
        <mxCell id="Czk9K3e9gK6CF3bR32Vg-16" value="Output Layer" style="text;html=1;strokeColor=none;fillColor=none;align=center;verticalAlign=middle;whiteSpace=wrap;rounded=0;shadow=0;glass=0;sketch=0;fillStyle=auto;strokeWidth=1;fontFamily=Times New Roman;fontSize=20;" vertex="1" parent="1">
          <mxGeometry x="895.37" y="158.75" width="110.25" height="30" as="geometry" />
        </mxCell>
        <mxCell id="Czk9K3e9gK6CF3bR32Vg-17" value="&lt;b&gt;&lt;font style=&quot;font-size: 22px;&quot;&gt;Efficient Blocks&lt;/font&gt;&lt;/b&gt;" style="text;html=1;strokeColor=none;fillColor=none;align=center;verticalAlign=middle;whiteSpace=wrap;rounded=0;shadow=0;glass=0;sketch=0;fillStyle=auto;strokeWidth=1;fontFamily=Times New Roman;fontSize=20;" vertex="1" parent="1">
          <mxGeometry x="451" y="257" width="161" height="30" as="geometry" />
        </mxCell>
        <mxCell id="Czk9K3e9gK6CF3bR32Vg-18" value="&lt;font style=&quot;font-size: 17px;&quot;&gt;MBconv1 3x3&lt;/font&gt;" style="rounded=1;whiteSpace=wrap;html=1;fillColor=#FFFF00;rotation=-90;" vertex="1" parent="1">
          <mxGeometry x="2" y="410" width="137" height="30" as="geometry" />
        </mxCell>
        <mxCell id="Czk9K3e9gK6CF3bR32Vg-19" value="&lt;font style=&quot;font-size: 17px;&quot;&gt;MBconv1 3x3&lt;/font&gt;" style="rounded=1;whiteSpace=wrap;html=1;fillColor=#FFFF00;rotation=-90;" vertex="1" parent="1">
          <mxGeometry x="36" y="410" width="137" height="30" as="geometry" />
        </mxCell>
        <mxCell id="Czk9K3e9gK6CF3bR32Vg-78" style="edgeStyle=orthogonalEdgeStyle;rounded=0;orthogonalLoop=1;jettySize=auto;html=1;exitX=0.5;exitY=1;exitDx=0;exitDy=0;entryX=0.5;entryY=0;entryDx=0;entryDy=0;strokeWidth=2;" edge="1" parent="1" source="Czk9K3e9gK6CF3bR32Vg-20" target="Czk9K3e9gK6CF3bR32Vg-21">
          <mxGeometry relative="1" as="geometry" />
        </mxCell>
        <mxCell id="Czk9K3e9gK6CF3bR32Vg-20" value="&lt;font style=&quot;font-size: 17px;&quot;&gt;MBconv1 3x3&lt;/font&gt;" style="rounded=1;whiteSpace=wrap;html=1;fillColor=#FFFF00;rotation=-90;" vertex="1" parent="1">
          <mxGeometry x="70" y="410" width="137" height="30" as="geometry" />
        </mxCell>
        <mxCell id="Czk9K3e9gK6CF3bR32Vg-21" value="&lt;font style=&quot;font-size: 17px;&quot;&gt;MBconv6 3x3&lt;/font&gt;" style="rounded=1;whiteSpace=wrap;html=1;fillColor=#FF0000;rotation=-90;fontColor=#FFFFFF;" vertex="1" parent="1">
          <mxGeometry x="130" y="410" width="137" height="30" as="geometry" />
        </mxCell>
        <mxCell id="Czk9K3e9gK6CF3bR32Vg-24" value="&lt;font style=&quot;font-size: 17px;&quot;&gt;MBconv6 3x3&lt;/font&gt;" style="rounded=1;whiteSpace=wrap;html=1;fillColor=#FF0000;rotation=-90;fontColor=#FFFFFF;" vertex="1" parent="1">
          <mxGeometry x="164" y="410" width="137" height="30" as="geometry" />
        </mxCell>
        <mxCell id="Czk9K3e9gK6CF3bR32Vg-25" value="&lt;font style=&quot;font-size: 17px;&quot;&gt;MBconv6 3x3&lt;/font&gt;" style="rounded=1;whiteSpace=wrap;html=1;fillColor=#FF0000;rotation=-90;fontColor=#FFFFFF;" vertex="1" parent="1">
          <mxGeometry x="267" y="410" width="137" height="30" as="geometry" />
        </mxCell>
        <mxCell id="Czk9K3e9gK6CF3bR32Vg-26" value="&lt;font style=&quot;font-size: 17px;&quot;&gt;MBconv6 3x3&lt;/font&gt;" style="rounded=1;whiteSpace=wrap;html=1;fillColor=#FF0000;rotation=-90;fontColor=#FFFFFF;" vertex="1" parent="1">
          <mxGeometry x="198" y="410" width="137" height="30" as="geometry" />
        </mxCell>
        <mxCell id="Czk9K3e9gK6CF3bR32Vg-27" value="&lt;font style=&quot;font-size: 17px;&quot;&gt;MBconv6 3x3&lt;/font&gt;" style="rounded=1;whiteSpace=wrap;html=1;fillColor=#FF0000;rotation=-90;fontColor=#FFFFFF;" vertex="1" parent="1">
          <mxGeometry x="232" y="410" width="137" height="30" as="geometry" />
        </mxCell>
        <mxCell id="Czk9K3e9gK6CF3bR32Vg-28" value="&lt;font style=&quot;font-size: 17px;&quot;&gt;MBconv6 3x3&lt;/font&gt;" style="rounded=1;whiteSpace=wrap;html=1;fillColor=#FF0000;rotation=-90;fontColor=#FFFFFF;" vertex="1" parent="1">
          <mxGeometry x="301" y="410" width="137" height="30" as="geometry" />
        </mxCell>
        <mxCell id="Czk9K3e9gK6CF3bR32Vg-79" style="edgeStyle=orthogonalEdgeStyle;rounded=0;orthogonalLoop=1;jettySize=auto;html=1;exitX=0.5;exitY=1;exitDx=0;exitDy=0;strokeWidth=2;" edge="1" parent="1" source="Czk9K3e9gK6CF3bR32Vg-29">
          <mxGeometry relative="1" as="geometry">
            <mxPoint x="445.19996643066406" y="425" as="targetPoint" />
          </mxGeometry>
        </mxCell>
        <mxCell id="Czk9K3e9gK6CF3bR32Vg-29" value="&lt;font style=&quot;font-size: 17px;&quot;&gt;MBconv6 3x3&lt;/font&gt;" style="rounded=1;whiteSpace=wrap;html=1;fillColor=#FF0000;rotation=-90;fontColor=#FFFFFF;" vertex="1" parent="1">
          <mxGeometry x="335" y="410" width="137" height="30" as="geometry" />
        </mxCell>
        <mxCell id="Czk9K3e9gK6CF3bR32Vg-30" value="&lt;font color=&quot;#ffffff&quot; style=&quot;font-size: 17px;&quot;&gt;MBconv6 5x5&lt;/font&gt;" style="rounded=1;whiteSpace=wrap;html=1;fillColor=#0000FF;rotation=-90;" vertex="1" parent="1">
          <mxGeometry x="393" y="410" width="137" height="30" as="geometry" />
        </mxCell>
        <mxCell id="Czk9K3e9gK6CF3bR32Vg-31" value="&lt;font color=&quot;#ffffff&quot; style=&quot;font-size: 17px;&quot;&gt;MBconv6 5x5&lt;/font&gt;" style="rounded=1;whiteSpace=wrap;html=1;fillColor=#0000FF;rotation=-90;" vertex="1" parent="1">
          <mxGeometry x="428" y="410" width="137" height="30" as="geometry" />
        </mxCell>
        <mxCell id="Czk9K3e9gK6CF3bR32Vg-32" value="&lt;font color=&quot;#ffffff&quot; style=&quot;font-size: 17px;&quot;&gt;MBconv6 5x5&lt;/font&gt;" style="rounded=1;whiteSpace=wrap;html=1;fillColor=#0000FF;rotation=-90;" vertex="1" parent="1">
          <mxGeometry x="497" y="410" width="137" height="30" as="geometry" />
        </mxCell>
        <mxCell id="Czk9K3e9gK6CF3bR32Vg-33" value="&lt;font color=&quot;#ffffff&quot; style=&quot;font-size: 17px;&quot;&gt;MBconv6 5x5&lt;/font&gt;" style="rounded=1;whiteSpace=wrap;html=1;fillColor=#0000FF;rotation=-90;" vertex="1" parent="1">
          <mxGeometry x="463" y="410" width="137" height="30" as="geometry" />
        </mxCell>
        <mxCell id="Czk9K3e9gK6CF3bR32Vg-34" value="&lt;font color=&quot;#ffffff&quot; style=&quot;font-size: 17px;&quot;&gt;MBconv6 5x5&lt;/font&gt;" style="rounded=1;whiteSpace=wrap;html=1;fillColor=#0000FF;rotation=-90;" vertex="1" parent="1">
          <mxGeometry x="532" y="410" width="137" height="30" as="geometry" />
        </mxCell>
        <mxCell id="Czk9K3e9gK6CF3bR32Vg-36" value="&lt;font color=&quot;#ffffff&quot; style=&quot;font-size: 17px;&quot;&gt;MBconv6 5x5&lt;/font&gt;" style="rounded=1;whiteSpace=wrap;html=1;fillColor=#0000FF;rotation=-90;" vertex="1" parent="1">
          <mxGeometry x="567" y="410" width="137" height="30" as="geometry" />
        </mxCell>
        <mxCell id="Czk9K3e9gK6CF3bR32Vg-80" style="edgeStyle=orthogonalEdgeStyle;rounded=0;orthogonalLoop=1;jettySize=auto;html=1;exitX=0.5;exitY=1;exitDx=0;exitDy=0;strokeWidth=2;" edge="1" parent="1" source="Czk9K3e9gK6CF3bR32Vg-37">
          <mxGeometry relative="1" as="geometry">
            <mxPoint x="713.2000885009766" y="425" as="targetPoint" />
          </mxGeometry>
        </mxCell>
        <mxCell id="Czk9K3e9gK6CF3bR32Vg-37" value="&lt;font color=&quot;#ffffff&quot; style=&quot;font-size: 17px;&quot;&gt;MBconv6 5x5&lt;/font&gt;" style="rounded=1;whiteSpace=wrap;html=1;fillColor=#0000FF;rotation=-90;" vertex="1" parent="1">
          <mxGeometry x="602" y="410" width="137" height="30" as="geometry" />
        </mxCell>
        <mxCell id="Czk9K3e9gK6CF3bR32Vg-38" value="&lt;font color=&quot;#ffffff&quot; style=&quot;font-size: 17px;&quot;&gt;MBconv6 3x3&lt;/font&gt;" style="rounded=1;whiteSpace=wrap;html=1;fillColor=#FF0000;rotation=-90;" vertex="1" parent="1">
          <mxGeometry x="660.25" y="410" width="137" height="30" as="geometry" />
        </mxCell>
        <mxCell id="Czk9K3e9gK6CF3bR32Vg-39" value="&lt;font color=&quot;#ffffff&quot; style=&quot;font-size: 17px;&quot;&gt;MBconv6 3x3&lt;/font&gt;" style="rounded=1;whiteSpace=wrap;html=1;fillColor=#FF0000;rotation=-90;" vertex="1" parent="1">
          <mxGeometry x="695" y="410" width="137" height="30" as="geometry" />
        </mxCell>
        <mxCell id="Czk9K3e9gK6CF3bR32Vg-40" value="&lt;font color=&quot;#ffffff&quot; style=&quot;font-size: 17px;&quot;&gt;MBconv6 3x3&lt;/font&gt;" style="rounded=1;whiteSpace=wrap;html=1;fillColor=#FF0000;rotation=-90;" vertex="1" parent="1">
          <mxGeometry x="729" y="410" width="137" height="30" as="geometry" />
        </mxCell>
        <mxCell id="Czk9K3e9gK6CF3bR32Vg-41" value="&lt;font color=&quot;#ffffff&quot; style=&quot;font-size: 17px;&quot;&gt;MBconv6 3x3&lt;/font&gt;" style="rounded=1;whiteSpace=wrap;html=1;fillColor=#FF0000;rotation=-90;" vertex="1" parent="1">
          <mxGeometry x="762.5" y="410" width="137" height="30" as="geometry" />
        </mxCell>
        <mxCell id="Czk9K3e9gK6CF3bR32Vg-42" value="&lt;font color=&quot;#ffffff&quot; style=&quot;font-size: 17px;&quot;&gt;MBconv6 3x3&lt;/font&gt;" style="rounded=1;whiteSpace=wrap;html=1;fillColor=#FF0000;rotation=-90;" vertex="1" parent="1">
          <mxGeometry x="829.21" y="410" width="137" height="30" as="geometry" />
        </mxCell>
        <mxCell id="Czk9K3e9gK6CF3bR32Vg-43" value="&lt;font color=&quot;#ffffff&quot; style=&quot;font-size: 17px;&quot;&gt;MBconv6 3x3&lt;/font&gt;" style="rounded=1;whiteSpace=wrap;html=1;fillColor=#FF0000;rotation=-90;" vertex="1" parent="1">
          <mxGeometry x="863" y="410" width="137" height="30" as="geometry" />
        </mxCell>
        <mxCell id="Czk9K3e9gK6CF3bR32Vg-44" value="&lt;font color=&quot;#ffffff&quot; style=&quot;font-size: 17px;&quot;&gt;MBconv6 3x3&lt;/font&gt;" style="rounded=1;whiteSpace=wrap;html=1;fillColor=#FF0000;rotation=-90;" vertex="1" parent="1">
          <mxGeometry x="897" y="410" width="137" height="30" as="geometry" />
        </mxCell>
        <mxCell id="Czk9K3e9gK6CF3bR32Vg-45" value="&lt;font color=&quot;#ffffff&quot; style=&quot;font-size: 17px;&quot;&gt;MBconv6 3x3&lt;/font&gt;" style="rounded=1;whiteSpace=wrap;html=1;fillColor=#FF0000;rotation=-90;" vertex="1" parent="1">
          <mxGeometry x="795.98" y="410" width="137" height="30" as="geometry" />
        </mxCell>
        <mxCell id="Czk9K3e9gK6CF3bR32Vg-46" value="&lt;font color=&quot;#ffffff&quot; style=&quot;font-size: 17px;&quot;&gt;MBconv6 3x3&lt;/font&gt;" style="rounded=1;whiteSpace=wrap;html=1;fillColor=#FF0000;rotation=-90;" vertex="1" parent="1">
          <mxGeometry x="931" y="410" width="137" height="30" as="geometry" />
        </mxCell>
        <mxCell id="Czk9K3e9gK6CF3bR32Vg-83" style="edgeStyle=orthogonalEdgeStyle;rounded=0;orthogonalLoop=1;jettySize=auto;html=1;exitX=0.5;exitY=1;exitDx=0;exitDy=0;entryX=0.5;entryY=0;entryDx=0;entryDy=0;strokeWidth=2;" edge="1" parent="1" source="Czk9K3e9gK6CF3bR32Vg-47" target="Czk9K3e9gK6CF3bR32Vg-50">
          <mxGeometry relative="1" as="geometry">
            <mxPoint x="1062.25" y="424" as="sourcePoint" />
            <mxPoint x="69.5" y="638" as="targetPoint" />
            <Array as="points">
              <mxPoint x="1048" y="424" />
              <mxPoint x="1080" y="424" />
              <mxPoint x="1080" y="531" />
              <mxPoint x="26" y="531" />
              <mxPoint x="26" y="638" />
            </Array>
          </mxGeometry>
        </mxCell>
        <mxCell id="Czk9K3e9gK6CF3bR32Vg-47" value="&lt;font color=&quot;#ffffff&quot; style=&quot;font-size: 17px;&quot;&gt;MBconv6 3x3&lt;/font&gt;" style="rounded=1;whiteSpace=wrap;html=1;fillColor=#FF0000;rotation=-90;" vertex="1" parent="1">
          <mxGeometry x="964.75" y="410" width="137" height="30" as="geometry" />
        </mxCell>
        <mxCell id="Czk9K3e9gK6CF3bR32Vg-50" value="&lt;font color=&quot;#ffffff&quot; style=&quot;font-size: 17px;&quot;&gt;MBconv6 5x5&lt;/font&gt;" style="rounded=1;whiteSpace=wrap;html=1;fillColor=#0000FF;rotation=-90;" vertex="1" parent="1">
          <mxGeometry x="2" y="624" width="137" height="30" as="geometry" />
        </mxCell>
        <mxCell id="Czk9K3e9gK6CF3bR32Vg-51" value="&lt;font color=&quot;#ffffff&quot; style=&quot;font-size: 17px;&quot;&gt;MBconv6 5x5&lt;/font&gt;" style="rounded=1;whiteSpace=wrap;html=1;fillColor=#0000FF;rotation=-90;" vertex="1" parent="1">
          <mxGeometry x="37" y="624" width="137" height="30" as="geometry" />
        </mxCell>
        <mxCell id="Czk9K3e9gK6CF3bR32Vg-52" value="&lt;font color=&quot;#ffffff&quot; style=&quot;font-size: 17px;&quot;&gt;MBconv6 5x5&lt;/font&gt;" style="rounded=1;whiteSpace=wrap;html=1;fillColor=#0000FF;rotation=-90;" vertex="1" parent="1">
          <mxGeometry x="106" y="624" width="137" height="30" as="geometry" />
        </mxCell>
        <mxCell id="Czk9K3e9gK6CF3bR32Vg-53" value="&lt;font color=&quot;#ffffff&quot; style=&quot;font-size: 17px;&quot;&gt;MBconv6 5x5&lt;/font&gt;" style="rounded=1;whiteSpace=wrap;html=1;fillColor=#0000FF;rotation=-90;" vertex="1" parent="1">
          <mxGeometry x="72" y="624" width="137" height="30" as="geometry" />
        </mxCell>
        <mxCell id="Czk9K3e9gK6CF3bR32Vg-54" value="&lt;font color=&quot;#ffffff&quot; style=&quot;font-size: 17px;&quot;&gt;MBconv6 5x5&lt;/font&gt;" style="rounded=1;whiteSpace=wrap;html=1;fillColor=#0000FF;rotation=-90;" vertex="1" parent="1">
          <mxGeometry x="141" y="624" width="137" height="30" as="geometry" />
        </mxCell>
        <mxCell id="Czk9K3e9gK6CF3bR32Vg-55" value="&lt;font color=&quot;#ffffff&quot; style=&quot;font-size: 17px;&quot;&gt;MBconv6 5x5&lt;/font&gt;" style="rounded=1;whiteSpace=wrap;html=1;fillColor=#0000FF;rotation=-90;" vertex="1" parent="1">
          <mxGeometry x="176" y="624" width="137" height="30" as="geometry" />
        </mxCell>
        <mxCell id="Czk9K3e9gK6CF3bR32Vg-56" value="&lt;font color=&quot;#ffffff&quot; style=&quot;font-size: 17px;&quot;&gt;MBconv6 5x5&lt;/font&gt;" style="rounded=1;whiteSpace=wrap;html=1;fillColor=#0000FF;rotation=-90;" vertex="1" parent="1">
          <mxGeometry x="211" y="624" width="137" height="30" as="geometry" />
        </mxCell>
        <mxCell id="Czk9K3e9gK6CF3bR32Vg-57" value="&lt;font color=&quot;#ffffff&quot; style=&quot;font-size: 17px;&quot;&gt;MBconv6 5x5&lt;/font&gt;" style="rounded=1;whiteSpace=wrap;html=1;fillColor=#0000FF;rotation=-90;" vertex="1" parent="1">
          <mxGeometry x="246" y="624" width="137" height="30" as="geometry" />
        </mxCell>
        <mxCell id="Czk9K3e9gK6CF3bR32Vg-58" value="&lt;font color=&quot;#ffffff&quot; style=&quot;font-size: 17px;&quot;&gt;MBconv6 5x5&lt;/font&gt;" style="rounded=1;whiteSpace=wrap;html=1;fillColor=#0000FF;rotation=-90;" vertex="1" parent="1">
          <mxGeometry x="281" y="624" width="137" height="30" as="geometry" />
        </mxCell>
        <mxCell id="Czk9K3e9gK6CF3bR32Vg-81" style="edgeStyle=orthogonalEdgeStyle;rounded=0;orthogonalLoop=1;jettySize=auto;html=1;exitX=0.5;exitY=1;exitDx=0;exitDy=0;entryX=0.5;entryY=0;entryDx=0;entryDy=0;strokeWidth=2;" edge="1" parent="1" source="Czk9K3e9gK6CF3bR32Vg-60" target="Czk9K3e9gK6CF3bR32Vg-61">
          <mxGeometry relative="1" as="geometry" />
        </mxCell>
        <mxCell id="Czk9K3e9gK6CF3bR32Vg-60" value="&lt;font color=&quot;#ffffff&quot; style=&quot;font-size: 17px;&quot;&gt;MBconv6 5x5&lt;/font&gt;" style="rounded=1;whiteSpace=wrap;html=1;fillColor=#0000FF;rotation=-90;" vertex="1" parent="1">
          <mxGeometry x="316" y="624" width="137" height="30" as="geometry" />
        </mxCell>
        <mxCell id="Czk9K3e9gK6CF3bR32Vg-61" value="&lt;font style=&quot;font-size: 17px;&quot;&gt;MBconv6 5x5&lt;/font&gt;" style="rounded=1;whiteSpace=wrap;html=1;fillColor=#00FF00;rotation=-90;fontColor=#000000;" vertex="1" parent="1">
          <mxGeometry x="381" y="624" width="137" height="30" as="geometry" />
        </mxCell>
        <mxCell id="Czk9K3e9gK6CF3bR32Vg-62" value="&lt;font style=&quot;font-size: 17px;&quot;&gt;MBconv6 5x5&lt;/font&gt;" style="rounded=1;whiteSpace=wrap;html=1;fillColor=#00FF00;rotation=-90;fontColor=#000000;" vertex="1" parent="1">
          <mxGeometry x="416" y="624" width="137" height="30" as="geometry" />
        </mxCell>
        <mxCell id="Czk9K3e9gK6CF3bR32Vg-63" value="&lt;font style=&quot;font-size: 17px;&quot;&gt;MBconv6 5x5&lt;/font&gt;" style="rounded=1;whiteSpace=wrap;html=1;fillColor=#00FF00;rotation=-90;fontColor=#000000;" vertex="1" parent="1">
          <mxGeometry x="485" y="624" width="137" height="30" as="geometry" />
        </mxCell>
        <mxCell id="Czk9K3e9gK6CF3bR32Vg-64" value="&lt;font style=&quot;font-size: 17px;&quot;&gt;MBconv6 5x5&lt;/font&gt;" style="rounded=1;whiteSpace=wrap;html=1;fillColor=#00FF00;rotation=-90;fontColor=#000000;" vertex="1" parent="1">
          <mxGeometry x="451" y="624" width="137" height="30" as="geometry" />
        </mxCell>
        <mxCell id="Czk9K3e9gK6CF3bR32Vg-65" value="&lt;font style=&quot;font-size: 17px;&quot;&gt;MBconv6 5x5&lt;/font&gt;" style="rounded=1;whiteSpace=wrap;html=1;fillColor=#00FF00;rotation=-90;fontColor=#000000;" vertex="1" parent="1">
          <mxGeometry x="520" y="624" width="137" height="30" as="geometry" />
        </mxCell>
        <mxCell id="Czk9K3e9gK6CF3bR32Vg-66" value="&lt;font style=&quot;font-size: 17px;&quot;&gt;MBconv6 5x5&lt;/font&gt;" style="rounded=1;whiteSpace=wrap;html=1;fillColor=#00FF00;rotation=-90;fontColor=#000000;" vertex="1" parent="1">
          <mxGeometry x="555" y="624" width="137" height="30" as="geometry" />
        </mxCell>
        <mxCell id="Czk9K3e9gK6CF3bR32Vg-67" value="&lt;font style=&quot;font-size: 17px;&quot;&gt;MBconv6 5x5&lt;/font&gt;" style="rounded=1;whiteSpace=wrap;html=1;fillColor=#00FF00;rotation=-90;fontColor=#000000;" vertex="1" parent="1">
          <mxGeometry x="590" y="624" width="137" height="30" as="geometry" />
        </mxCell>
        <mxCell id="Czk9K3e9gK6CF3bR32Vg-68" value="&lt;font style=&quot;font-size: 17px;&quot;&gt;MBconv6 5x5&lt;/font&gt;" style="rounded=1;whiteSpace=wrap;html=1;fillColor=#00FF00;rotation=-90;fontColor=#000000;" vertex="1" parent="1">
          <mxGeometry x="625" y="624" width="137" height="30" as="geometry" />
        </mxCell>
        <mxCell id="Czk9K3e9gK6CF3bR32Vg-69" value="&lt;font style=&quot;font-size: 17px;&quot;&gt;MBconv6 5x5&lt;/font&gt;" style="rounded=1;whiteSpace=wrap;html=1;fillColor=#00FF00;rotation=-90;fontColor=#000000;" vertex="1" parent="1">
          <mxGeometry x="660" y="624" width="137" height="30" as="geometry" />
        </mxCell>
        <mxCell id="Czk9K3e9gK6CF3bR32Vg-70" value="&lt;font style=&quot;font-size: 17px;&quot;&gt;MBconv6 5x5&lt;/font&gt;" style="rounded=1;whiteSpace=wrap;html=1;fillColor=#00FF00;rotation=-90;fontColor=#000000;" vertex="1" parent="1">
          <mxGeometry x="729" y="624" width="137" height="30" as="geometry" />
        </mxCell>
        <mxCell id="Czk9K3e9gK6CF3bR32Vg-71" value="&lt;font style=&quot;font-size: 17px;&quot;&gt;MBconv6 5x5&lt;/font&gt;" style="rounded=1;whiteSpace=wrap;html=1;fillColor=#00FF00;rotation=-90;fontColor=#000000;" vertex="1" parent="1">
          <mxGeometry x="695" y="624" width="137" height="30" as="geometry" />
        </mxCell>
        <mxCell id="Czk9K3e9gK6CF3bR32Vg-82" style="edgeStyle=orthogonalEdgeStyle;rounded=0;orthogonalLoop=1;jettySize=auto;html=1;exitX=0.5;exitY=1;exitDx=0;exitDy=0;entryX=0.5;entryY=0;entryDx=0;entryDy=0;strokeWidth=2;" edge="1" parent="1" source="Czk9K3e9gK6CF3bR32Vg-72" target="Czk9K3e9gK6CF3bR32Vg-74">
          <mxGeometry relative="1" as="geometry" />
        </mxCell>
        <mxCell id="Czk9K3e9gK6CF3bR32Vg-72" value="&lt;font style=&quot;font-size: 17px;&quot;&gt;MBconv6 5x5&lt;/font&gt;" style="rounded=1;whiteSpace=wrap;html=1;fillColor=#00FF00;rotation=-90;fontColor=#000000;" vertex="1" parent="1">
          <mxGeometry x="797.48" y="624" width="137" height="30" as="geometry" />
        </mxCell>
        <mxCell id="Czk9K3e9gK6CF3bR32Vg-73" value="&lt;font style=&quot;font-size: 17px;&quot;&gt;MBconv6 5x5&lt;/font&gt;" style="rounded=1;whiteSpace=wrap;html=1;fillColor=#00FF00;rotation=-90;fontColor=#000000;" vertex="1" parent="1">
          <mxGeometry x="763.48" y="624" width="137" height="30" as="geometry" />
        </mxCell>
        <mxCell id="Czk9K3e9gK6CF3bR32Vg-74" value="&lt;font style=&quot;font-size: 17px;&quot;&gt;MBconv6 3x3&lt;/font&gt;" style="rounded=1;whiteSpace=wrap;html=1;fillColor=#FF0000;rotation=-90;fontColor=#FFFFFF;" vertex="1" parent="1">
          <mxGeometry x="861" y="624" width="137" height="30" as="geometry" />
        </mxCell>
        <mxCell id="Czk9K3e9gK6CF3bR32Vg-75" value="&lt;font style=&quot;font-size: 17px;&quot;&gt;MBconv6 3x3&lt;/font&gt;" style="rounded=1;whiteSpace=wrap;html=1;fillColor=#FF0000;rotation=-90;fontColor=#FFFFFF;" vertex="1" parent="1">
          <mxGeometry x="895" y="624" width="137" height="30" as="geometry" />
        </mxCell>
        <mxCell id="Czk9K3e9gK6CF3bR32Vg-76" value="&lt;font style=&quot;font-size: 17px;&quot;&gt;MBconv6 3x3&lt;/font&gt;" style="rounded=1;whiteSpace=wrap;html=1;fillColor=#FF0000;rotation=-90;fontColor=#FFFFFF;" vertex="1" parent="1">
          <mxGeometry x="929" y="624" width="137" height="30" as="geometry" />
        </mxCell>
        <mxCell id="Czk9K3e9gK6CF3bR32Vg-77" value="&lt;font style=&quot;font-size: 17px;&quot;&gt;MBconv6 3x3&lt;/font&gt;" style="rounded=1;whiteSpace=wrap;html=1;fillColor=#FF0000;rotation=-90;fontColor=#FFFFFF;" vertex="1" parent="1">
          <mxGeometry x="963" y="624" width="137" height="30" as="geometry" />
        </mxCell>
      </root>
    </mxGraphModel>
  </diagram>
</mxfile>
